<svg xmlns="http://www.w3.org/2000/svg" viewBox="0 0 182.32 187.24"><defs><style>.cls-1{fill:#231f20;}.cls-2{fill:#fefefe;}.cls-3{fill:#fdfdfd;}.cls-4{fill:#fdfdfe;}.cls-5{fill:#fcfcfc;}.cls-6{fill:#fcfbfb;}.cls-7{fill:#fbfbfb;}.cls-8{fill:#f0eff0;}.cls-9{fill:#f5f4f4;}.cls-10{fill:#ecebec;}.cls-11{fill:#e6e4e5;}.cls-12{fill:#d6d3d4;}.cls-13{fill:#f2f0f1;}.cls-14{fill:#f7f6f6;}.cls-15{fill:#d6d4d4;}.cls-16{fill:#f9f7f7;}.cls-17{fill:#d4d2d3;}.cls-18{fill:#eaebea;}.cls-19{fill:#9f9b9d;}.cls-20{fill:#d5d1d2;}.cls-21{fill:#e5e2e3;}.cls-22{fill:#8c898a;}.cls-23{fill:#aca9aa;}.cls-24{fill:#252123;}</style></defs><title>Asset 4</title><g id="Layer_2" data-name="Layer 2"><g id="Layer_1-2" data-name="Layer 1"><path class="cls-1" d="M182.32,93.72v92c0,1.24-.37,1.52-1.9,1.52H1.82C.41,187.24,0,187,0,185.81Q.06,93.7,0,1.59C0,.34.31,0,2,0Q91.17.06,180.39,0c1.48,0,1.93.22,1.93,1.5Q182.29,47.63,182.32,93.72Z"/><path class="cls-2" d="M90,157.24H27.87c-1.4,0-1.79-.25-1.75-1.39.11-3,.07-6,0-9.06,0-.84.17-1.18,1.36-1.18q13,.06,26,0a2.75,2.75,0,0,1,1.92.67,19.39,19.39,0,0,0,24.13-.11,1.91,1.91,0,0,1,1.49-.55,12.78,12.78,0,0,0,1.75,0c1.55-.16,2.32,0,2.33,1.61,0,2.18,1.67,4,3.51,5.55a1.65,1.65,0,0,0,2.32-.18.71.71,0,0,0,.1-.14,13.17,13.17,0,0,0,3.76-6c.16-.67.41-1,1.3-.88a4.18,4.18,0,0,0,1,0,10.14,10.14,0,0,1,7.09,1.88c4.34,3,9.53,3.45,14.9,1.65a20.66,20.66,0,0,0,5.53-2.73,4.2,4.2,0,0,1,2.69-.81c8.34,0,16.68.05,25,0,1.47,0,1.75.33,1.72,1.42-.11,2.93-.12,5.87,0,8.8,0,1.24-.5,1.42-1.86,1.42Q121,157.21,90,157.24Z"/><path class="cls-2" d="M82.5,138c.62-2.66.42-3.08-2.71-4.26a5.61,5.61,0,0,1-3.59-3.82c-.49-1.53.17-2.61,1.91-3.43a17.67,17.67,0,0,1,3.61-1.3c1-.22,1.42-.57.88-1.44-.68-1.09-1.21-2.25-1.86-3.36a6.09,6.09,0,0,0-4.87-2.7q-4.19-.48-5.08,2.84a6.09,6.09,0,0,0,.61,5.33,4.17,4.17,0,0,1,.26.46c.33.79-.18,1.36-1,1.68s-1.22-.35-1.49-.81a15.81,15.81,0,0,1-1.85-6.92c-.28-3.18-.53-6.38,1-9.45a7.68,7.68,0,0,1,1.66-2.3,4.25,4.25,0,0,1,6-.29l.22.21c2.43,2.23,3.54,5,4.69,7.72,1.22,2.9,2,5.88,3,8.89,1.45-.61,2-1.49,1.83-2.73a8.18,8.18,0,0,1,0-1.4.35.35,0,0,1,.43,0c.29,1.21.67,2.4.85,3.62.14.92.61.83,1.31.43a1.88,1.88,0,0,0,1-1.77,51.49,51.49,0,0,0-3.83-21.45,34.41,34.41,0,0,1-2.7-9.15A6.43,6.43,0,0,1,83.16,89c.36-.83.55-1.77,2.18-1.38.54.12.89-.32,1.12-.75a5.83,5.83,0,0,0,.35-2.65,8.66,8.66,0,0,1,.51-3.64,2.19,2.19,0,0,1,2-1.46,2.53,2.53,0,0,1,2.3,1.14c1.32,1.7.92,3.51.46,5.31a8.4,8.4,0,0,1-.34,1,.85.85,0,0,0,.31,1.16,1.22,1.22,0,0,0,1.45-.07c1.07-.71,1.41-.3,1.84.54,1.57,3.08.82,6.08-.34,9.07-2.13,5.5-3.72,11-3.49,16.87a29.4,29.4,0,0,1-.54,5,15.64,15.64,0,0,0,.28,5.58c.18.2.09.53.4.65,1.23.48.9.93,0,1.4-2.31.23-4.64.15-7,.38a17.49,17.49,0,0,0-2.8.4c-.71.19-1.48.43-1.5,1.14s.78,1,1.54,1.27a7.92,7.92,0,0,0,3.93.1l7,0a7.61,7.61,0,0,0,3.15.15c2.1-.3,2.45-.73,2-2.41a1.27,1.27,0,0,1,1.32-1.23l.18,0c1.68.67,3.21,1.31,3.56,3.1.41,2-.32,3.38-2.51,4.48-2.78,1.39-2.74,1.49-1.7,4a14.73,14.73,0,0,0,4.72,6.1c3.86,3,10.58,1.18,12.36-1.52a10.4,10.4,0,0,1,2.16-2.94,2.78,2.78,0,0,1,.12,2.39c-.22.61-.46,1.22-.69,1.83s-.54,1.14,0,1.41a2.07,2.07,0,0,0,2-.36,11.12,11.12,0,0,0,4.88-7.36,1.35,1.35,0,0,0-.9-1.51c-.82-.41-1.14.19-1.6.47-2.39,1.44-4.21,1.42-5.53-.06a2.24,2.24,0,0,1-.63-1.8c.2-1.92,3.09-3.91,5.58-3.84,2,.06,4.21,2,4.3,3.83a6.3,6.3,0,0,0,.53,2.38c.4.86,1.11,1.24,2.18.55l1.48-1a6.38,6.38,0,0,1,6.33,0,2.24,2.24,0,0,1,1.27,2.19.42.42,0,0,1-.54-.14c-2.49-1.85-3.15-1.86-5.8-.17a13.72,13.72,0,0,0-3.81,3.55c-2.92,4-7.45,6.31-13.11,6.8a14.41,14.41,0,0,1-11.17-3.77,48.7,48.7,0,0,1-6.06-6.85,15.22,15.22,0,0,0-1.13-1.39c-.68-.66-1.24-1.61-2.64-1.21a2.66,2.66,0,0,0-1.71,2.9A19,19,0,0,0,93,142.83c1.61,3.45-.44,6.08-2.8,8.68-.46.51-.87.36-1.24-.06-1.78-2-3.44-4-2.27-6.79a44.32,44.32,0,0,0,1.76-6.07c.18-.69.68-1.5-.63-2s-2.63-.83-3.8.17a10.78,10.78,0,0,0-1.22,1.48C82.52,138.23,82.32,138.22,82.5,138Z"/><path class="cls-2" d="M75.07,14.6A24.71,24.71,0,0,1,73,16.15a4,4,0,0,0-2.09,3.66q-.21,12.51-.5,25c-.14,6.39-.23,12.8-.5,19.19-.08,2,.37,3.75,2.52,5,.53.31,1,.7,1.76,1.22H59.32l-.16.64c.86-.64,1.69-1.31,2.58-1.91a3.36,3.36,0,0,0,1.67-2.9c.15-7.27.3-14.55.5-21.82,0-.82-.39-.9-1.2-.9-3,0-6,0-8.92-.14-1,0-1.37.19-1.37,1,0,3.24-.08,6.47-.17,9.7-.08,3.62-.11,7.24-.33,10.85a4.72,4.72,0,0,0,2.53,4.79c.58.35,1.15.72,1.72,1.07l-.29.62h-15c1.19-.9,2-1.56,2.91-2.13a3.54,3.54,0,0,0,1.74-3q.48-23.82,1-47.66a3.4,3.4,0,0,0-1.64-3.18c-.85-.57-1.65-1.19-2.78-2H57.32a14.34,14.34,0,0,1-2.44,2.06A3.74,3.74,0,0,0,53,18.5c-.14,6.85-.27,13.7-.45,20.55,0,.78.24,1,1.22,1,3,0,6.06,0,9.09.11,1,0,1.2-.27,1.22-1q.12-10.29.36-20.55a3.56,3.56,0,0,0-1.74-3.26,14,14,0,0,0-2.61-1.11H74.89Z"/><path class="cls-2" d="M15.6,69.91a16.12,16.12,0,0,1,1.72-1.26,4.58,4.58,0,0,0,2.5-4.43c.1-8,.29-16.11.47-24.17.19-7.9.37-15.79.62-23.67,0-1-.25-1.38-1.63-1.34-4,.11-3.87-.7-5.22,3.18-1.43,4.09-2.91,8.17-4.36,12.26-.08.24-.11.49-.19.53V16.15c0-1.3-.62-3,.46-3.78s3-.15,4.64-.13l22.83.27c.74,0,1.31,0,1.28.85-.19,5.8-.33,11.6-.48,17.4a.71.71,0,0,1-.33.61L34.63,20.84c-.42-1.36-.85-2.71-1.24-4.08-.31-1.06-1-1.56-2.47-1.57-3.66,0-3.65-.09-3.71,2.83-.31,15.22-.57,30.44-1,45.66-.07,2.39.5,4.26,3,5.67A5.91,5.91,0,0,1,30,70a1.31,1.31,0,0,1,.19.27H15.79Z"/><path class="cls-2" d="M121.15,71.24H108.83a4.13,4.13,0,0,1,.68-.64c2.55-1.52,2.92-3.59,3-5.95.08-10.2.35-20.4.65-30.6a3.68,3.68,0,0,0-2-3.82,11.2,11.2,0,0,1-1.28-1h8.56a.39.39,0,0,1,.44.34.14.14,0,0,1,0,.09,6.76,6.76,0,0,0,0,.9c.09.47-.39,1.12.35,1.38s1.15-.31,1.6-.66a9,9,0,0,1,6.52-1.95c3.49.28,5.92,2.08,6.56,4.84a14.83,14.83,0,0,1,.34,3.7c-.23,9.69-.4,19.38-.7,29.06a4.23,4.23,0,0,0,1.86,4,18.37,18.37,0,0,1,1.38,1.27H124.13s1.86-1.8,2.69-2.47a2.27,2.27,0,0,0,1-1.82q.29-15.37.63-30.76a8,8,0,0,0-.36-2.91c-.93-2.53-4.08-3.22-6.47-1.39a6.54,6.54,0,0,0-2.71,4.89c-.52,7.87-.45,15.74-.64,23.61a47.87,47.87,0,0,1-.14,5.49,3.77,3.77,0,0,0,1.72,3.75A5.15,5.15,0,0,0,121.15,71.24Z"/><path class="cls-2" d="M91.78,70.18c2.53-1.39,3-3.37,3-5.71q.33-22,1-44a5.15,5.15,0,0,0-2.67-5.07,3,3,0,0,1-1.26-1.12h14.87c-1.06.79-1.72,1.38-2.48,1.85a3.84,3.84,0,0,0-2,3.49q-.25,14.63-.64,29.23c-.11,5.45-.2,10.91-.47,16.32a5,5,0,0,0,2.59,5c.56.35,1.06.75,1.61,1.15H91.83A.89.89,0,0,1,91.78,70.18Z"/><path class="cls-2" d="M159.88,67.25c-1.23,2.49-2.75,4.75-6.53,5.08a8.36,8.36,0,0,1-8.18-3.9,22.5,22.5,0,0,1-3-10.1,56.81,56.81,0,0,1,.54-16.92,18.16,18.16,0,0,1,3.5-8.13,8.51,8.51,0,0,1,5.91-3.35c4.19-.49,8,2.16,8.38,5.78-.67,0-.78-.51-1.08-.8A11.47,11.47,0,0,0,156.91,33c-2.9-1.54-5.68-.81-6.85,1.8a16.76,16.76,0,0,0-1.22,5.89,136.08,136.08,0,0,0,0,21.93,13.52,13.52,0,0,0,1.29,5.1c1.19,2.34,3.3,2.94,6.16,1.81A24.27,24.27,0,0,0,159.88,67.25Z"/><path class="cls-2" d="M91.75,126.38c.11-.33.81-.72-.25-.91-.47-.09-.37-.55-.37-.89.31.37.53.87,1.15.19a4.13,4.13,0,0,0,1.09-2.22c.54-3.26.34-6.54.57-9.8A33.73,33.73,0,0,1,102.29,93a18.08,18.08,0,0,1,5.64-4.61c2.29-1.15,3.15-1.07,5.17.34a3,3,0,0,0,4,0,17.56,17.56,0,0,0,3-3.09,14.65,14.65,0,0,1,6.53-4.11c1.53-.5,3-1.06,4.48-1.64a4.2,4.2,0,0,1,4,.44,2.48,2.48,0,0,1,1.06,3c-.19.74-.62,1.2-1.8.82-5.35-1.72-8.15-1.16-12,2.31l-.11.09c-2.56,2.34-2.55,2.33-.47,5,.27.35.72.64.69,1.11a1,1,0,0,1-.9.07c-4.32-1.3-8.14-.15-11.81,1.56a24.71,24.71,0,0,0-12.94,13.54,38.4,38.4,0,0,0-2.63,16.08c-.31.34,0,.42.32.53,1.55.76,1.86-.37,2.2-1a8.7,8.7,0,0,0,.71-3.62,17.83,17.83,0,0,1,2.2-8.11,4,4,0,0,1,1.67,1.64,1,1,0,0,1-.22,1.39c-1.6,1.35-1.47,2.23.44,3.27a1,1,0,0,1,.42.36l-1.59,1.15a2.15,2.15,0,0,1-.61.09c-.32,0-.76-.35-.88.18s.56.36.87.53a9.55,9.55,0,0,0-1,3.62,3.53,3.53,0,0,0,.72,2.5,2.76,2.76,0,0,0-1.32,1.11A38.27,38.27,0,0,1,91.75,126.38Z"/><path class="cls-2" d="M102,118.26c-2.16-.56-2.82-1.45-2.3-3.12.07-.22.16-.44.42-.49,2-.35,1-1.16.44-1.89-.26-.39-.9-.62-.87-1.16a9.38,9.38,0,0,1,3.31-4.55,6.27,6.27,0,0,1,8.57.53c3.11,3.4,4,7.23,2.34,11.23-1.09,2.65-2.17,5.3-3.06,8-.21.63-.4,1.59-1.32,1.55s-1.28-1-1.45-1.76a5.61,5.61,0,0,1,.42-3C109.63,120.38,105.63,117.17,102,118.26Z"/><path class="cls-3" d="M84.48,115.93a84.86,84.86,0,0,0-4.81-11.17c-2-4-5.67-6.81-10-9.16a7.3,7.3,0,0,0-3.14-.83A3.52,3.52,0,0,1,65,94.46a8.37,8.37,0,0,0-5.44-.91c-1.18.14-1.43-.24-1.06-1.09a8.65,8.65,0,0,1,2-2.75c.93-.86.71-1.59-.08-2.37-3.28-3.23-11-3.52-14.5-.54a5.13,5.13,0,0,1-.66.56c-.43.27-.69.93-1.36.71a1.66,1.66,0,0,1-1.14-1.43c-.12-1.33.69-2.28,2-3a6.28,6.28,0,0,1,2.29-.85,24.93,24.93,0,0,1,13.58,1.58A5.43,5.43,0,0,1,64,87.77a11.42,11.42,0,0,0,.72,2c.74,1.54,1.56,1.82,3.34,1.12a5.08,5.08,0,0,1,5.2.91c2.94,2.18,4.71,5,6.44,7.82,2.6,4.24,3.64,8.84,4.72,13.42.14.62.23,1.26.35,1.88C84.86,115.26,85.25,115.7,84.48,115.93Z"/><path class="cls-3" d="M49.46,138.62h.31c2.64.79,2.59.78,3.18-1.53a10.3,10.3,0,0,1,3-5.54,4,4,0,0,1,4.12-.92,4.49,4.49,0,0,0,1.7.31c1.86-.29,2.08.7,2.33,1.73a6.54,6.54,0,0,1,0,3.17,2.68,2.68,0,0,1-3.39,1.7,2.62,2.62,0,0,1-.93-.53c-.62-.55-1.38-1.34-2.57-.79a2.18,2.18,0,0,0-1.35,2.41c.26,3.92,4.25,7.83,8.44,8.24h.31c.91,0,2.12.21,2.51-.42s-.77-1.06-1.32-1.52c-1-.8-2.14-1.45-2.29-2.72.77-.06,1,.44,1.32.7a17.81,17.81,0,0,0,3.12,2,8,8,0,0,0,8.5-.61,24.29,24.29,0,0,0,5.48-5.42c.31,0,.48,0,.35.3-2.84,9.33-12.78,10.66-19.94,9.41a10.27,10.27,0,0,1-5-2.55c-1.44-1.24-2.83-2.52-4.21-3.81a26.41,26.41,0,0,0-4.35-3.33C48.71,138.5,49.09,138.5,49.46,138.62Z"/><path class="cls-4" d="M63.42,182.2c2.24-.36,2-1.68,2-3-.06-2.38,0-4.77,0-7.16,0-1.91,0-1.91-2.08-2.8h8.49c-1.78.48-2.69,1.06-2.43,2.38a20.76,20.76,0,0,1,.07,3.25c0,.29.23.37.55.37h-.19c1.49-.11,3.77.55,4.24-.28.74-1.2.3-2.89.25-4.37,0-.93-1.4-.71-2.12-1.35h8.28c-2.63.52-1.94,2.2-2,3.63v5.83s.13,2.43,2.21,2.54H72.54c1.51-.25,2.54-.77,2.27-2.08a17.79,17.79,0,0,1-.08-3.18c0-.12-.24-.24-.41-.33a.51.51,0,0,0-.3,0c-1.51.1-3.9-.54-4.33.26-.71,1.32-.3,3.07-.14,4.63,0,.58,1.83,1.7,1.83,1.7Z"/><path class="cls-3" d="M15.68,181.23c2.07-.42,2-1.62,2-2.92-.07-2.68,0-5.36,0-8,0-.42.43-1.11-.53-1.16s-1.78-.31-2.39.47c-.72.94-1.49,1.85-2.24,2.76-.17.22-.34.5-.75.35s-.24-.37-.24-.57V169c0-.62.37-.73,1-.72H27c.71,0,1,.19.94.76-.06,1,0,2.07,0,3.17,0,.19.12.46-.22.57a.74.74,0,0,1-.77-.36A30.49,30.49,0,0,1,25,170c-.61-1-1.64-1-2.65-.81s-.51,1-.52,1.44c-.06,2.5,0,5,0,7.51,0,1.26-.51,2.75,1.88,3.15Z"/><path class="cls-5" d="M92.71,180.42a10.28,10.28,0,0,1-8.07,0,4.62,4.62,0,0,1-2.41-5.18c.33-1.66,1.8-2.88,4-3.25a12.56,12.56,0,0,1,4.41,0c2.24.38,3.31,1.57,3.27,3.39,0,.68-.32.87-1.13.86H87.53c-.82,0-1.19.1-1.21.88-.07,3.11,1.58,3.95,6.06,3C92.7,180,92.78,180.16,92.71,180.42Z"/><path class="cls-3" d="M122.6,169.24h7.77c-2.53.42-1.83,1.92-1.86,3.2v6c0,1.18-.36,2.47,1.91,2.8h-7.81c2.36-.37,1.92-1.75,1.9-3v-6.61C124.5,170.06,124.5,170.06,122.6,169.24Z"/><path class="cls-6" d="M40.14,173.69a10.67,10.67,0,0,0-3.12-.87c-1.84-.12-2.84.58-2.87,2s0,2.81,0,4.21c0,1-.07,1.92,1.56,2.21h-7c2-.41,1.89-1.43,1.84-2.51-.06-1.4,0-2.8,0-4.21,0-1,.38-2.07-1.44-2.46,1.78.26,3.6-.7,5.21.43.17.12.77-.15,1.16-.25C37.63,171.73,39.09,172.1,40.14,173.69Z"/><path class="cls-3" d="M112.9,172.08c.58.43,1.76.3,1.89,1.32-1-.24-1.92-.53-2.86-.66-1.64-.22-2.75.45-2.81,1.73-.08,1.82,0,3.65,0,5.48,0,.91,1.19.68,1.59,1.29h-6.55c1.53-.44,1.37-1.43,1.35-2.39v-4.59c0-.95.09-1.84-1.43-2.23,1.82.25,3.66-.75,5.35.44.54.37,1.11-.49,1.8-.38A3.06,3.06,0,0,1,112.9,172.08Z"/><path class="cls-7" d="M50,181.2c-1.52,0-3,.52-4.51.42-3.06-.19-3.64-.63-3.65-3.08,0-1.36,0-2.72,0-4.08.05-.94.05-1.78-1.39-2.22h4.3c.94,0,.77.54.77,1v5.6c0,1.87.94,2.5,3.38,1.81l.45-.11C49.85,180.54,50.6,180.54,50,181.2Z"/><path class="cls-3" d="M139.24,172.6c-1.63.32-2.35,1.09-2.21,2.49a34.94,34.94,0,0,1,0,3.69c0,1-.42,2.14,1.44,2.46h-6.53c1.55-.45,1.54-1.41,1.48-2.47-.08-1.57-.06-3.14,0-4.71,0-.92,0-1.71-1.47-1.93,2.47-.54,4.87.14,7.26,0a.29.29,0,0,1,.1.4A.23.23,0,0,1,139.24,172.6Z"/><path class="cls-5" d="M95.77,172.18c.36-.2.4-.23.44-.23,1.52,0,3.49-.4,4.46.2s.28,2.3.35,3.51a28.11,28.11,0,0,1,0,3.18c0,1-.14,2,1.39,2.4H96c2-.53,1.39-1.85,1.42-3,0-1.36-.06-2.72,0-4.08C97.49,173.24,97.45,172.4,95.77,172.18Z"/><path class="cls-3" d="M50.6,180.85c.26-.49-.49-.4-.6-.68a2,2,0,0,0,.51-1.61v-4.29c0-.84.16-1.71-1.64-1.71l.31-.32h4.13c.81,0,.72.42.72.83,0,2,.06,4,0,6a1.84,1.84,0,0,0,1.3,2.17H51C50.71,181.23,50.57,181.09,50.6,180.85Z"/><path class="cls-3" d="M139.51,172.88v-.64h.26a12,12,0,0,1,2.39.14,3.16,3.16,0,0,0,1,.23c1.27,0,1.92.56,1.93,1.59,0,1.65,0,3.3,0,5,0,1,0,1.94,1.46,2h-6.44c1.5-.1,1.42-1.06,1.4-2.05v-4.32C141.49,173.43,141.32,173.08,139.51,172.88Z"/><path class="cls-3" d="M156.46,180.82a.34.34,0,0,1,.28,0c.39-.08.83-.32,1,.25-.31.08-.5.4-.9.3a17.52,17.52,0,0,1-4.22,0c-2.92-.6-4.24-2.45-3.85-5.44.27-2.12,2.13-3.42,5-3.54.36-.1.75-.2,1,0s0,.37-.28.49a2.11,2.11,0,0,0-1.66,2,14.15,14.15,0,0,0,.06,3.79,2.6,2.6,0,0,0,1.6,2.19A3.48,3.48,0,0,0,156.46,180.82Z"/><path class="cls-3" d="M165,69.5a4.56,4.56,0,0,1,.67-2.6,3,3,0,0,1,4.21-.51,3.12,3.12,0,0,1,.67.73,4.11,4.11,0,0,1,.09,3.84A2.71,2.71,0,0,1,168,72.59a2.55,2.55,0,0,1-2.65-1.84A9,9,0,0,1,165,69.5Z"/><path class="cls-8" d="M163,181.6c-.76-.1-1.81,0-1.88-.82s1-.89,1.74-.9,1.79,0,1.87.79S163.74,181.5,163,181.6Z"/><path class="cls-9" d="M99.23,170.74c-.81-.12-1.87-.11-1.92-.87s1-.88,1.75-.9,1.81.06,1.88.81S100,170.59,99.23,170.74Z"/><path class="cls-10" d="M154.54,172.88c.36-.7-.43-.41-.73-.54,2.15-.36,4-.05,5.38,1.52C157.63,173.5,156.21,172.78,154.54,172.88Z"/><path class="cls-2" d="M99.73,120.28c-.42.06-.89.61-1.2.14a2,2,0,0,1,0-1.38c0-.28.42-.23.63-.08a2.56,2.56,0,0,0,1.19.52Z"/><path class="cls-11" d="M84.48,115.93c.41-.3.16-.71.3-1.06a17.25,17.25,0,0,1,.87,3.89c-.17.16,0,.42-.29.55Z"/><path class="cls-12" d="M157.71,181c-.24-.32-.66-.15-1-.25a7,7,0,0,1,2.36-.69A1.44,1.44,0,0,1,157.71,181Z"/><path class="cls-13" d="M91.71,70.14c0,.37.36.72,0,1.1H90.45C90.63,70.65,91.23,70.43,91.71,70.14Z"/><path class="cls-14" d="M85.36,119.79l.29-.55a5.72,5.72,0,0,1,.42,2h-.43A2.8,2.8,0,0,1,85.36,119.79Z"/><path class="cls-12" d="M152.63,181.24h4.22A7.39,7.39,0,0,1,152.63,181.24Z"/><path class="cls-15" d="M49.46,138.62c-.28.07-.6.06-.75.32l-1.53-.6c0-.49.42-.25.7-.25A3.71,3.71,0,0,1,49.46,138.62Z"/><path class="cls-16" d="M65,146.13a6,6,0,0,1-2.28-.64C63.79,145.27,63.79,145.27,65,146.13Z"/><path class="cls-17" d="M82.24,139.22l-.35-.3a1.52,1.52,0,0,1,.61-1l.28.25A1.58,1.58,0,0,1,82.24,139.22Z"/><path class="cls-2" d="M94.63,124.38c-.42.18-.9.06-1-.2s.37-.3.69-.33Z"/><path class="cls-18" d="M142.16,172.24h-2.39A4.06,4.06,0,0,1,142.16,172.24Z"/><path class="cls-19" d="M45,137.74a.85.85,0,0,1-.85.37c-.06,0-.13-.24-.07-.28A.69.69,0,0,1,45,137.74Z"/><path class="cls-20" d="M92.71,180.81l-.39-.31,1.38-.69C93.5,180.5,93.24,180.71,92.71,180.81Z"/><path class="cls-12" d="M156.46,181.24a1.76,1.76,0,0,1-1.92,0Z"/><path class="cls-21" d="M112.87,172.24h-1.7A2,2,0,0,1,112.87,172.24Z"/><path class="cls-22" d="M46.53,138.11c-.28-.09-.89-.09-.7-.4s.73-.08,1.07.14C46.88,138,46.68,138.05,46.53,138.11Z"/><path class="cls-23" d="M46.53,138.11l.37-.26,1,.24-.69.25Z"/><path class="cls-1" d="M91.75,126.11c2.17.18,4.41.15,6.35,1.13,1.23,1.58.81,2.39-1.45,2.79a27.73,27.73,0,0,1-4.9.21H84.87a11.32,11.32,0,0,1-3.28-.31c-1-.26-1.93-.62-2-1.61s1-1.28,2-1.52a28.18,28.18,0,0,1,5.5-.54C88.68,126.16,90.23,126.15,91.75,126.11Z"/><path class="cls-2" d="M96.63,126.5c.51-.19.85-.53,1.08-.12s-.19.35-.5.28Z"/><path class="cls-2" d="M93.82,125a3.18,3.18,0,0,1-.52.1c-.22,0-.45-.08-.25-.28a.82.82,0,0,1,.55-.15C93.75,124.67,93.89,124.77,93.82,125Z"/><path class="cls-2" d="M97.57,124.27c.07-.48.33-.65.74-.8C98.39,123.9,98.07,124.06,97.57,124.27Z"/><path class="cls-24" d="M88.24,176c-1,0-2.17.36-2-1.13s.51-2,1.93-1.94,1.85.59,2,2S89.18,175.94,88.24,176Z"/></g></g></svg>