<?xml version="1.0" encoding="utf-8"?>
<!-- Generator: Adobe Illustrator 23.0.3, SVG Export Plug-In . SVG Version: 6.00 Build 0)  -->
<svg version="1.1" id="Layer_1" xmlns="http://www.w3.org/2000/svg" xmlns:xlink="http://www.w3.org/1999/xlink" x="0px" y="0px"
	 viewBox="0 0 224.1 369.1" style="enable-background:new 0 0 224.1 369.1;" xml:space="preserve">
<style type="text/css">
	.st0{fill:#FDFDFD;}
	.st1{fill:#CBCBCB;}
	.st2{fill:#C5C5C5;}
	.st3{fill:#C8C8C8;}
	.st4{fill:#231F20;}
	.st5{fill:#FEFEFE;}
	.st6{fill:#FDFDFE;}
	.st7{fill:#FCFCFC;}
	.st8{fill:#FCFBFB;}
	.st9{fill:#FBFBFB;}
	.st10{fill:#F0EFF0;}
	.st11{fill:#F5F4F4;}
	.st12{fill:#ECEBEC;}
	.st13{fill:#E6E4E5;}
	.st14{fill:#D6D3D4;}
	.st15{fill:#F2F0F1;}
	.st16{fill:#F7F6F6;}
	.st17{fill:#D6D4D4;}
	.st18{fill:#F9F7F7;}
	.st19{fill:#D4D2D3;}
	.st20{fill:#EAEBEA;}
	.st21{fill:#9F9B9D;}
	.st22{fill:#D5D1D2;}
	.st23{fill:#E5E2E3;}
	.st24{fill:#8C898A;}
	.st25{fill:#ACA9AA;}
	.st26{fill:#252123;}
</style>
<path class="st0" d="M207.7,228.8c0,59.6,0,119.2,0,178.9c0,0.9-0.2,1.2-1.4,1.2c-73.7,0-147.4,0-221.1,0c-1.3,0-1.5-0.3-1.5-1.3
	c0-122.2,0-244.3,0-366.5c0-1,0.1-1.3,1.5-1.3c73.7,0,147.4,0,221.1,0c1.2,0,1.4,0.3,1.4,1.2c0,37.9,0,75.8,0,113.8
	c-0.4,0.6-1.4,0.8-1.9,1.4c-0.1,0.1-0.2,0.2-0.2,0.3c-0.3,0.2-0.4,0.5-0.8,0.7c0,0.1-0.4-0.3-0.2,0.1c0.1,0.1,0.1,0.1,0.1,0.2
	c0,0.4,0.2,0.8,0.2,1.2c0.1,5.7,0,11.3,0,17v49.6c0,0.3,0,0.6,0.1,0.8c0.1,0.3,0.2,0.7,0.4,1C205.9,227.9,207.1,228.1,207.7,228.8z"
	/>
<path class="st0" d="M510.9,145v73c-1.3,0.3-1.8-0.5-2.4-1.1c-0.2-0.4-0.3-0.9-0.5-1.3c-0.1-8,0-16,0-24c0-14.6,0-29.1,0-43.7
	c0-0.7,0.3-1.4,0.7-1.9l0,0C509.2,145.3,510,144.9,510.9,145z"/>
<path class="st1" d="M508.7,217c0.7,0.4,1.2,1,2.2,1v0.5c-1-0.1-2-0.6-2.5-1.5C508.4,216.9,508.5,216.9,508.7,217z"/>
<path class="st2" d="M510.9,145c-0.9,0.1-1.5,0.7-2.2,1c0.2-1.1,1.4-1.1,2.2-1.5V145z"/>
<path class="st3" d="M508,216h0.3c0.2,0.3,0.4,0.6,0.4,1h-0.3C508.1,216.7,508,216.4,508,216z"/>
<path class="st0" d="M507.9,146.8l-0.2,0.3c-0.3-0.1-0.7-0.3-0.4-0.6c0.1-0.1,0.1-0.1,0.2-0.2L507.9,146.8z"/>
<g>
	<path class="st4" d="M463.8,140.5c0,30.7,0,61.3,0,92c0,1.2-0.4,1.5-1.9,1.5c-59.5,0-119.1,0-178.6,0c-1.4,0-1.8-0.2-1.8-1.4
		c0-61.4,0-122.8,0-184.2c0-1.3,0.3-1.6,2-1.6c59.5,0,119,0,178.4,0c1.5,0,1.9,0.2,1.9,1.5C463.8,79.1,463.8,109.8,463.8,140.5z"/>
	<path class="st5" d="M371.5,204.1c-20.7,0-41.4,0-62.1,0c-1.4,0-1.8-0.3-1.8-1.4c0.1-3,0.1-6,0-9.1c0-0.8,0.2-1.2,1.4-1.2
		c8.7,0,17.3,0,26,0c0.7,0,1.4,0.2,1.9,0.7c7.1,5.6,17.1,5.5,24.1-0.1c0.4-0.4,0.9-0.6,1.5-0.6c0.6,0,1.2,0,1.8,0
		c1.6-0.2,2.3,0,2.3,1.6c0,2.2,1.7,4,3.5,5.6c0.7,0.6,1.7,0.5,2.3-0.2c0,0,0.1-0.1,0.1-0.1c1.8-1.6,3.1-3.7,3.8-6
		c0.2-0.7,0.4-1,1.3-0.9c0.3,0,0.7,0,1,0c2.5-0.3,5.1,0.4,7.1,1.9c4.3,3,9.5,3.4,14.9,1.6c2-0.6,3.8-1.5,5.5-2.7
		c0.8-0.6,1.7-0.9,2.7-0.8c8.3,0,16.7,0.1,25,0c1.5,0,1.8,0.3,1.7,1.4c-0.1,2.9-0.1,5.9,0,8.8c0.1,1.2-0.5,1.4-1.9,1.4
		C412.9,204,392.2,204,371.5,204.1z"/>
	<path class="st5" d="M364,184.8c0.6-2.7,0.4-3.1-2.7-4.3c-1.8-0.6-3.1-2-3.6-3.8c-0.5-1.5,0.2-2.6,1.9-3.4c1.2-0.6,2.4-1,3.6-1.3
		c1-0.2,1.4-0.6,0.9-1.4c-0.7-1.1-1.2-2.3-1.9-3.4c-1-1.6-2.7-2.4-4.9-2.7c-2.8-0.3-4.5,0.6-5.1,2.8c-0.6,1.8-0.4,3.7,0.6,5.3
		c0.1,0.1,0.2,0.3,0.3,0.5c0.3,0.8-0.2,1.4-1,1.7s-1.2-0.4-1.5-0.8c-1.1-2.1-1.8-4.5-1.9-6.9c-0.3-3.2-0.5-6.4,1-9.4
		c0.4-0.9,1-1.6,1.7-2.3c1.6-1.7,4.3-1.9,6-0.3c0.1,0.1,0.1,0.1,0.2,0.2c2.4,2.2,3.5,5,4.7,7.7c1.2,2.9,2,5.9,3,8.9
		c1.4-0.6,2-1.5,1.8-2.7c0-0.5,0-0.9,0-1.4c0.1-0.1,0.3-0.1,0.4,0c0.3,1.2,0.7,2.4,0.8,3.6c0.1,0.9,0.6,0.8,1.3,0.4
		c0.7-0.3,1-1,1-1.8c0.3-7.3-1-14.7-3.8-21.4c-1.3-2.9-2.2-6-2.7-9.1c-0.2-1.2-0.1-2.4,0.4-3.5c0.4-0.8,0.5-1.8,2.2-1.4
		c0.5,0.1,0.9-0.3,1.1-0.8c0.3-0.8,0.4-1.8,0.4-2.6c-0.1-1.2,0.1-2.5,0.5-3.6c0.3-0.9,1.1-1.4,2-1.5c0.9-0.1,1.8,0.4,2.3,1.1
		c1.3,1.7,0.9,3.5,0.5,5.3c-0.1,0.3-0.2,0.7-0.3,1c-0.2,0.4-0.1,0.9,0.3,1.2c0.4,0.3,1,0.3,1.5-0.1c1.1-0.7,1.4-0.3,1.8,0.5
		c1.6,3.1,0.8,6.1-0.3,9.1c-2.1,5.5-3.7,11-3.5,16.9c0,1.7-0.2,3.3-0.5,4.9c-0.2,1.9-0.1,3.8,0.3,5.6c0.2,0.2,0.1,0.5,0.4,0.6
		c1.2,0.5,0.9,0.9,0,1.4c-2.3,0.2-4.6,0.1-7,0.4c-0.9,0.1-1.9,0.2-2.8,0.4c-0.7,0.2-1.5,0.4-1.5,1.1c0,0.7,0.8,1,1.5,1.3
		c1.3,0.4,2.6,0.4,3.9,0.1c2.4,0,4.6,0,7-0.1c1,0.3,2.1,0.3,3.1,0.2c2.1-0.3,2.4-0.7,2-2.4c0-0.7,0.6-1.3,1.3-1.2c0.1,0,0.1,0,0.2,0
		c1.7,0.7,3.2,1.3,3.6,3.1c0.4,2-0.3,3.4-2.5,4.5c-2.8,1.4-2.7,1.5-1.7,4c1,2.4,2.6,4.5,4.7,6.1c3.9,3,10.6,1.2,12.4-1.5
		c0.5-1.1,1.3-2.1,2.2-2.9c0.4,0.7,0.4,1.6,0.1,2.4c-0.2,0.6-0.5,1.2-0.7,1.8c-0.2,0.6-0.5,1.1-0.1,1.4c0.7,0.2,1.4,0.1,2-0.4
		c2.6-1.7,4.3-4.3,4.9-7.4c0.1-0.7-0.3-1.3-0.9-1.5c-0.8-0.4-1.1,0.2-1.6,0.5c-2.4,1.4-4.2,1.4-5.5-0.1c-0.5-0.5-0.7-1.1-0.6-1.8
		c0.2-1.9,3.1-3.9,5.6-3.8c2,0.1,4.2,2,4.3,3.8c0,0.8,0.2,1.6,0.5,2.4c0.4,0.9,1.1,1.2,2.2,0.6l1.5-1c2-1.1,4.4-1.1,6.3,0
		c0.8,0.4,1.3,1.3,1.3,2.2c-0.3,0.1-0.4,0-0.5-0.1c-2.5-1.9-3.1-1.9-5.8-0.2c-1.5,0.9-2.8,2.1-3.8,3.6c-2.9,4-7.5,6.3-13.1,6.8
		c-4.1,0.4-8.2-1-11.2-3.8c-2.2-2.1-4.3-4.4-6.1-6.9c-0.3-0.5-0.7-1-1.1-1.4c-0.7-0.7-1.2-1.6-2.6-1.2c-1.2,0.4-1.9,1.7-1.7,2.9
		c0.4,1.5,0.9,2.9,1.6,4.3c1.6,3.4-0.4,6.1-2.8,8.7c-0.5,0.5-0.9,0.4-1.2-0.1c-1.8-2-3.4-4-2.3-6.8c0.7-2,1.3-4,1.8-6.1
		c0.2-0.7,0.7-1.5-0.6-2s-2.6-0.8-3.8,0.2c-0.4,0.5-0.9,1-1.2,1.5C364,185.1,363.8,185,364,184.8z"/>
	<path class="st5" d="M356.6,61.4c-0.7,0.6-1.4,1.1-2.1,1.6c-1.3,0.7-2.1,2.1-2.1,3.7c-0.1,8.3-0.3,16.7-0.5,25
		c-0.1,6.4-0.2,12.8-0.5,19.2c-0.1,2,0.4,3.7,2.5,5c0.5,0.3,1,0.7,1.8,1.2h-14.8l-0.2,0.6c0.9-0.6,1.7-1.3,2.6-1.9
		c1-0.6,1.7-1.7,1.7-2.9c0.2-7.3,0.3-14.6,0.5-21.8c0-0.8-0.4-0.9-1.2-0.9c-3,0-6,0-8.9-0.1c-1,0-1.4,0.2-1.4,1
		c0,3.2-0.1,6.5-0.2,9.7c-0.1,3.6-0.1,7.2-0.3,10.9c-0.2,2,0.8,3.9,2.5,4.8c0.6,0.4,1.1,0.7,1.7,1.1l-0.3,0.6h-15
		c1.2-0.9,2-1.6,2.9-2.1c1.1-0.6,1.7-1.8,1.7-3c0.3-15.9,0.7-31.8,1-47.7c0.1-1.3-0.5-2.5-1.6-3.2c-0.9-0.6-1.7-1.2-2.8-2h15.2
		c0,0-1.5,1.5-2.4,2.1c-1.2,0.7-1.9,1.9-1.9,3.2c-0.1,6.8-0.3,13.7-0.4,20.6c0,0.8,0.2,1,1.2,1c3,0,6.1,0,9.1,0.1c1,0,1.2-0.3,1.2-1
		c0.1-6.9,0.2-13.7,0.4-20.6c0.1-1.3-0.6-2.6-1.7-3.3c-0.8-0.5-2.6-1.1-2.6-1.1h14.8L356.6,61.4z"/>
	<path class="st5" d="M297.1,116.7c0.5-0.5,1.1-0.9,1.7-1.3c1.7-0.8,2.6-2.6,2.5-4.4c0.1-8,0.3-16.1,0.5-24.2
		c0.2-7.9,0.4-15.8,0.6-23.7c0-1-0.3-1.4-1.6-1.3c-4,0.1-3.9-0.7-5.2,3.2c-1.4,4.1-2.9,8.2-4.4,12.3c-0.1,0.2-0.1,0.5-0.2,0.5
		c0-4.9,0-9.9,0-14.9c0-1.3-0.6-3,0.5-3.8c1.1-0.8,3-0.2,4.6-0.1l22.8,0.3c0.7,0,1.3,0,1.3,0.9c-0.2,5.8-0.3,11.6-0.5,17.4
		c0,0.2-0.1,0.5-0.3,0.6l-3.3-10.5c-0.4-1.4-0.9-2.7-1.2-4.1c-0.3-1.1-1-1.6-2.5-1.6c-3.7,0-3.7-0.1-3.7,2.8
		c-0.3,15.2-0.6,30.4-1,45.7c-0.1,2.4,0.5,4.3,3,5.7c0.3,0.2,0.6,0.4,0.8,0.6c0.1,0.1,0.1,0.2,0.2,0.3h-14.4L297.1,116.7z"/>
	<path class="st5" d="M402.6,118.1h-12.3c0.2-0.2,0.4-0.5,0.7-0.6c2.5-1.5,2.9-3.6,3-5.9c0.1-10.2,0.3-20.4,0.6-30.6
		c0.2-1.6-0.6-3.1-2-3.8c-0.5-0.3-0.9-0.6-1.3-1h8.6c0.2,0,0.4,0.1,0.4,0.3c0,0,0,0.1,0,0.1c0,0.3,0,0.6,0,0.9
		c0.1,0.5-0.4,1.1,0.4,1.4c0.7,0.3,1.1-0.3,1.6-0.7c1.8-1.5,4.2-2.2,6.5-2c3.5,0.3,5.9,2.1,6.6,4.8c0.3,1.2,0.4,2.5,0.3,3.7
		c-0.2,9.7-0.4,19.4-0.7,29.1c-0.2,1.6,0.5,3.1,1.9,4c0.5,0.4,0.9,0.8,1.4,1.3h-12.6c0,0,1.9-1.8,2.7-2.5c0.6-0.4,0.9-1.1,0.9-1.8
		c0.2-10.2,0.4-20.5,0.6-30.8c0.1-1-0.1-2-0.4-2.9c-0.9-2.5-4.1-3.2-6.5-1.4c-1.6,1.1-2.6,2.9-2.7,4.9c-0.5,7.9-0.5,15.7-0.6,23.6
		c0,1.8,0.1,3.7-0.1,5.5c-0.2,1.5,0.4,3,1.7,3.8C401.8,117.8,402.6,118.1,402.6,118.1z"/>
	<path class="st5" d="M373.3,117c2.5-1.4,3-3.4,3-5.7c0.2-14.7,0.5-29.4,1-44c0.2-2.1-0.8-4.1-2.7-5.1c-0.5-0.2-1-0.6-1.3-1.1h14.9
		c-1.1,0.8-1.7,1.4-2.5,1.9c-1.3,0.7-2.1,2-2,3.5c-0.2,9.7-0.4,19.5-0.6,29.2c-0.1,5.4-0.2,10.9-0.5,16.3c-0.2,2,0.8,4,2.6,5
		c0.6,0.3,1.1,0.8,1.6,1.2h-13.4C373.1,117.8,373,117.3,373.3,117z"/>
	<path class="st5" d="M441.4,114.1c-1.2,2.5-2.8,4.8-6.5,5.1c-3.3,0.4-6.5-1.1-8.2-3.9c-2-3.2-2.6-6.6-3-10.1
		c-0.7-5.6-0.5-11.3,0.5-16.9c0.5-3,1.7-5.7,3.5-8.1c1.4-1.9,3.6-3.1,5.9-3.3c4.2-0.5,8,2.2,8.4,5.8c-0.7,0-0.8-0.5-1.1-0.8
		c-0.7-0.8-1.6-1.4-2.5-1.9c-2.9-1.5-5.7-0.8-6.9,1.8c-0.8,1.9-1.2,3.9-1.2,5.9c-0.6,7.3-0.6,14.6,0,21.9c0.1,1.8,0.5,3.5,1.3,5.1
		c1.2,2.3,3.3,2.9,6.2,1.8C439,115.7,440.2,114.9,441.4,114.1z"/>
	<path class="st5" d="M373.2,173.2c0.1-0.3,0.8-0.7-0.3-0.9c-0.5-0.1-0.4-0.6-0.4-0.9c0.3,0.4,0.5,0.9,1.2,0.2
		c0.6-0.6,1-1.4,1.1-2.2c0.5-3.3,0.3-6.5,0.6-9.8c0.6-7.3,3.5-14.3,8.4-19.8c1.5-1.9,3.5-3.5,5.6-4.6c2.3-1.1,3.1-1.1,5.2,0.3
		c1.1,1,2.9,1,4,0c1.1-0.9,2.1-1.9,3-3.1c1.8-1.9,4-3.4,6.5-4.1c1.5-0.5,3-1.1,4.5-1.6c1.3-0.5,2.8-0.4,4,0.4c1,0.6,1.5,1.9,1.1,3
		c-0.2,0.7-0.6,1.2-1.8,0.8c-5.4-1.7-8.1-1.2-12,2.3l-0.1,0.1c-2.6,2.3-2.6,2.3-0.5,5c0.3,0.4,0.7,0.6,0.7,1.1
		c-0.3,0.2-0.6,0.2-0.9,0.1c-4.3-1.3-8.1-0.1-11.8,1.6c-5.9,2.6-10.6,7.5-12.9,13.5c-2,5.1-2.9,10.6-2.6,16.1
		c-0.3,0.3,0,0.4,0.3,0.5c1.5,0.8,1.9-0.4,2.2-1c0.5-1.1,0.7-2.4,0.7-3.6c0.1-2.8,0.8-5.6,2.2-8.1c0.7,0.4,1.3,0.9,1.7,1.6
		c0.3,0.4,0.2,1.1-0.2,1.4c-1.6,1.4-1.5,2.2,0.4,3.3c0.2,0.1,0.3,0.2,0.4,0.4l-1.6,1.1c-0.2,0.1-0.4,0.1-0.6,0.1
		c-0.3,0-0.8-0.4-0.9,0.2c-0.1,0.5,0.6,0.4,0.9,0.5c-0.6,1.1-0.9,2.4-1,3.6c-0.1,0.9,0.2,1.8,0.7,2.5c-0.5,0.2-1,0.6-1.3,1.1
		C377.5,174.1,375.3,173.8,373.2,173.2z"/>
	<path class="st5" d="M383.5,165.1c-2.2-0.6-2.8-1.4-2.3-3.1c0.1-0.2,0.2-0.4,0.4-0.5c2-0.4,1-1.2,0.4-1.9c-0.3-0.4-0.9-0.6-0.9-1.2
		c0.6-1.8,1.8-3.4,3.3-4.6c2.5-2.1,6.3-1.9,8.6,0.5c3.1,3.4,4,7.2,2.3,11.2c-1.1,2.6-2.2,5.3-3.1,8c-0.2,0.6-0.4,1.6-1.3,1.6
		s-1.3-1-1.5-1.8c-0.1-1,0-2.1,0.4-3C391.1,167.2,387.1,164,383.5,165.1z"/>
	<path class="st0" d="M366,162.7c-1.3-3.8-2.9-7.6-4.8-11.2c-2-4-5.7-6.8-10-9.2c-1-0.5-2-0.8-3.1-0.8c-0.5,0-1.1-0.1-1.5-0.3
		c-1.7-0.9-3.6-1.2-5.5-0.9c-1.2,0.1-1.4-0.2-1-1.1c0.5-1,1.2-2,2-2.8c0.9-0.9,0.7-1.6-0.1-2.4c-3.3-3.2-11-3.5-14.5-0.5
		c-0.2,0.2-0.4,0.4-0.7,0.6c-0.4,0.3-0.7,0.9-1.4,0.7c-0.6-0.2-1.1-0.8-1.1-1.4c-0.1-1.3,0.7-2.3,2-3c0.7-0.4,1.5-0.7,2.3-0.9
		c4.6-0.7,9.3-0.2,13.6,1.6c1.6,0.6,2.8,1.8,3.3,3.4c0.2,0.7,0.4,1.3,0.7,1.9c0.7,1.5,1.5,1.8,3.3,1.1c1.8-0.7,3.8-0.3,5.2,0.9
		c2.9,2.2,4.7,5,6.4,7.8c2.6,4.2,3.6,8.8,4.7,13.4c0.1,0.6,0.2,1.3,0.4,1.9C366.3,162.1,366.7,162.5,366,162.7z"/>
	<path class="st0" d="M331,185.4c0.1,0,0.2,0,0.3,0c2.6,0.8,2.6,0.8,3.2-1.5c0.4-2.1,1.4-4.1,3-5.5c1.1-1.1,2.7-1.4,4.1-0.9
		c0.5,0.2,1.1,0.3,1.7,0.3c1.9-0.3,2.1,0.7,2.3,1.7c0.3,1,0.3,2.1,0,3.2c-0.5,1.4-2,2.2-3.4,1.7c-0.3-0.1-0.7-0.3-0.9-0.5
		c-0.6-0.6-1.4-1.3-2.6-0.8c-1,0.4-1.5,1.4-1.3,2.4c0.3,3.9,4.3,7.8,8.4,8.2c0.1,0,0.2,0,0.3,0c0.9,0,2.1,0.2,2.5-0.4
		c0.4-0.6-0.8-1.1-1.3-1.5c-1-0.8-2.1-1.4-2.3-2.7c0.8-0.1,1,0.4,1.3,0.7c1,0.8,2,1.4,3.1,2c2.7,1.4,6,1.2,8.5-0.6
		c2.1-1.5,4-3.3,5.5-5.4c0.3,0,0.5,0,0.3,0.3c-2.8,9.3-12.8,10.7-19.9,9.4c-1.9-0.4-3.6-1.3-5-2.6c-1.4-1.2-2.8-2.5-4.2-3.8
		c-1.3-1.3-2.8-2.4-4.4-3.3C330.2,185.3,330.6,185.3,331,185.4z"/>
	<path class="st6" d="M344.9,229c2.2-0.4,2-1.7,2-3c-0.1-2.4,0-4.8,0-7.2c0-1.9,0-1.9-2.1-2.8h8.5c-1.8,0.5-2.7,1.1-2.4,2.4
		c0.1,1.1,0.1,2.2,0.1,3.2c0,0.3,0.2,0.4,0.6,0.4h-0.2c1.5-0.1,3.8,0.6,4.2-0.3c0.7-1.2,0.3-2.9,0.2-4.4c0-0.9-1.4-0.7-2.1-1.3h8.3
		c-2.6,0.5-1.9,2.2-2,3.6c0,2.2,0,5.8,0,5.8s0.1,2.4,2.2,2.5H354c1.5-0.3,2.5-0.8,2.3-2.1c-0.1-1.1-0.1-2.1-0.1-3.2
		c0-0.1-0.2-0.2-0.4-0.3c-0.1,0-0.2,0-0.3,0c-1.5,0.1-3.9-0.5-4.3,0.3c-0.7,1.3-0.3,3.1-0.1,4.6c0,0.6,1.8,1.7,1.8,1.7L344.9,229z"
		/>
	<path class="st0" d="M297.2,228c2.1-0.4,2-1.6,2-2.9c-0.1-2.7,0-5.4,0-8c0-0.4,0.4-1.1-0.5-1.2c-1-0.1-1.8-0.3-2.4,0.5
		c-0.7,0.9-1.5,1.8-2.2,2.8c-0.2,0.2-0.3,0.5-0.7,0.4c-0.4-0.1-0.2-0.4-0.2-0.6c0-1,0-2.1,0-3.2c0-0.6,0.4-0.7,1-0.7
		c4.8,0,9.6,0,14.5,0c0.7,0,1,0.2,0.9,0.8c-0.1,1,0,2.1,0,3.2c0,0.2,0.1,0.5-0.2,0.6c-0.3,0.1-0.6-0.1-0.8-0.4
		c-0.7-0.8-1.3-1.6-2-2.4c-0.6-1-1.6-1-2.7-0.8c-1,0.2-0.5,1-0.5,1.4c-0.1,2.5,0,5,0,7.5c0,1.3-0.5,2.7,1.9,3.2L297.2,228z"/>
	<path class="st7" d="M374.2,227.2c-2.6,1.1-5.5,1.1-8.1,0c-1.9-1-2.9-3.1-2.4-5.2c0.3-1.7,1.8-2.9,4-3.3c1.5-0.3,3-0.3,4.4,0
		c2.2,0.4,3.3,1.6,3.3,3.4c0,0.7-0.3,0.9-1.1,0.9c-1.8,0-3.5,0-5.3,0c-0.8,0-1.2,0.1-1.2,0.9c-0.1,3.1,1.6,3.9,6.1,3
		C374.2,226.8,374.3,227,374.2,227.2z"/>
	<path class="st0" d="M404.1,216.1h7.8c-2.5,0.4-1.8,1.9-1.9,3.2c0,2,0,4,0,6c0,1.2-0.4,2.5,1.9,2.8h-7.8c2.4-0.4,1.9-1.8,1.9-3
		c0-2.2,0-4.4,0-6.6C406,216.9,406,216.9,404.1,216.1z"/>
	<path class="st8" d="M321.6,220.5c-1-0.4-2-0.7-3.1-0.9c-1.8-0.1-2.8,0.6-2.9,2s0,2.8,0,4.2c0,1-0.1,1.9,1.6,2.2h-7
		c2-0.4,1.9-1.4,1.8-2.5c-0.1-1.4,0-2.8,0-4.2c0-1,0.4-2.1-1.4-2.5c1.8,0.3,3.6-0.7,5.2,0.4c0.2,0.1,0.8-0.1,1.2-0.3
		C319.1,218.5,320.6,218.9,321.6,220.5z"/>
	<path class="st0" d="M394.4,218.9c0.6,0.4,1.8,0.3,1.9,1.3c-1-0.2-1.9-0.5-2.9-0.7c-1.6-0.2-2.8,0.4-2.8,1.7c-0.1,1.8,0,3.6,0,5.5
		c0,0.9,1.2,0.7,1.6,1.3h-6.6c1.5-0.4,1.4-1.4,1.4-2.4c0-1.5,0-3.1,0-4.6c0-0.9,0.1-1.8-1.4-2.2c1.8,0.3,3.7-0.8,5.4,0.4
		c0.5,0.4,1.1-0.5,1.8-0.4C393.3,218.7,393.8,218.7,394.4,218.9z"/>
	<path class="st9" d="M331.5,228c-1.5,0-3,0.5-4.5,0.4c-3.1-0.2-3.6-0.6-3.6-3.1c0-1.4-0.1-2.7,0-4.1c0-0.9,0-1.8-1.4-2.2
		c1.4,0,2.9,0,4.3,0c0.9,0,0.8,0.5,0.8,1c0,1.9,0,3.7,0,5.6s0.9,2.5,3.4,1.8l0.5-0.1C331.3,227.4,332.1,227.4,331.5,228z"/>
	<path class="st0" d="M420.7,219.4c-1.6,0.3-2.4,1.1-2.2,2.5c0.1,1.2,0,2.5,0,3.7c0,1-0.4,2.1,1.4,2.5h-6.5c1.6-0.4,1.5-1.4,1.5-2.5
		c-0.1-1.6-0.1-3.1,0-4.7c0-0.9,0-1.7-1.5-1.9c2.5-0.5,4.9,0.1,7.3,0C420.8,219,420.9,219.2,420.7,219.4
		C420.8,219.4,420.8,219.4,420.7,219.4z"/>
	<path class="st7" d="M377.3,219c0.4-0.2,0.4-0.2,0.4-0.2c1.5,0,3.5-0.4,4.5,0.2s0.3,2.3,0.3,3.5c0.1,1.1,0.1,2.1,0,3.2
		c0,1-0.1,2,1.4,2.4h-6.4c2-0.5,1.4-1.9,1.4-3c0-1.4-0.1-2.7,0-4.1C379,220.1,378.9,219.2,377.3,219z"/>
	<path class="st0" d="M332.1,227.7c0.3-0.5-0.5-0.4-0.6-0.7c0.4-0.4,0.6-1,0.5-1.6c0-1.4,0-2.9,0-4.3c0-0.8,0.2-1.7-1.6-1.7l0.3-0.3
		c1.4,0,2.8,0,4.1,0c0.8,0,0.7,0.4,0.7,0.8c0,2,0.1,4,0,6c-0.2,1,0.4,1.9,1.3,2.2h-4.3C332.2,228.1,332.1,227.9,332.1,227.7z"/>
	<path class="st0" d="M421,219.7v-0.6h0.3c0.8,0,1.6,0,2.4,0.1c0.3,0.1,0.7,0.2,1,0.2c1.3,0,1.9,0.6,1.9,1.6c0,1.6,0.1,3.3,0,5
		c0,1,0,1.9,1.5,2h-6.4c1.5-0.1,1.4-1.1,1.4-2.1v-4.3C423,220.2,422.8,219.9,421,219.7z"/>
	<path class="st0" d="M437.9,227.6c0.1,0,0.2,0,0.3,0c0.4-0.1,0.8-0.3,1,0.3c-0.3,0.1-0.5,0.4-0.9,0.3c-1.4,0.2-2.8,0.2-4.2,0
		c-2.9-0.6-4.2-2.4-3.9-5.4c0.3-2.1,2.1-3.4,5.1-3.5c0.4-0.1,0.8-0.2,1,0s0,0.4-0.3,0.5c-0.9,0.2-1.6,1-1.7,2
		c-0.2,1.3-0.1,2.5,0.1,3.8c0.1,1,0.7,1.8,1.6,2.2C436.7,227.8,437.3,227.8,437.9,227.6z"/>
	<path class="st0" d="M446.5,116.3c0-0.9,0.2-1.8,0.7-2.6c1-1.3,2.9-1.5,4.2-0.5c0.3,0.2,0.5,0.5,0.7,0.7c0.7,1.2,0.7,2.6,0.1,3.8
		c-0.5,1.1-1.6,1.7-2.7,1.6c-1.2,0.1-2.3-0.7-2.6-1.8C446.7,117.2,446.6,116.7,446.5,116.3z"/>
	<path class="st10" d="M444.5,228.4c-0.8-0.1-1.8,0-1.9-0.8s1-0.9,1.7-0.9c0.7,0,1.8,0,1.9,0.8C446.3,228.3,445.2,228.3,444.5,228.4
		z"/>
	<path class="st11" d="M380.7,217.6c-0.8-0.1-1.9-0.1-1.9-0.9c-0.1-0.8,1-0.9,1.8-0.9s1.8,0.1,1.9,0.8
		C382.5,217.3,381.4,217.4,380.7,217.6z"/>
	<path class="st12" d="M436,219.7c0.4-0.7-0.4-0.4-0.7-0.5c2.1-0.4,4-0.1,5.4,1.5C439.1,220.3,437.7,219.6,436,219.7z"/>
	<path class="st5" d="M381.2,167.1c-0.4,0.1-0.9,0.6-1.2,0.1c-0.2-0.4-0.2-0.9,0-1.4c0-0.3,0.4-0.2,0.6-0.1c0.3,0.3,0.8,0.5,1.2,0.5
		L381.2,167.1z"/>
	<path class="st13" d="M366,162.7c0.4-0.3,0.2-0.7,0.3-1.1c0.4,1.3,0.7,2.6,0.9,3.9c-0.2,0.2,0,0.4-0.3,0.6L366,162.7z"/>
	<path class="st14" d="M439.2,227.8c-0.2-0.3-0.7-0.1-1-0.3c0.7-0.4,1.5-0.6,2.4-0.7C440.3,227.5,439.8,227.9,439.2,227.8z"/>
	<path class="st15" d="M373.2,117c0,0.4,0.4,0.7,0,1.1h-1.3C372.1,117.5,372.7,117.2,373.2,117z"/>
	<path class="st16" d="M366.8,166.6l0.3-0.6c0.3,0.6,0.4,1.3,0.4,2h-0.4C366.9,167.6,366.8,167.1,366.8,166.6z"/>
	<path class="st14" d="M434.1,228.1h4.2C437,228.5,435.5,228.5,434.1,228.1z"/>
	<path class="st17" d="M331,185.4c-0.3,0.1-0.6,0.1-0.8,0.3l-1.5-0.6c0-0.5,0.4-0.3,0.7-0.3C329.9,185,330.5,185.1,331,185.4z"/>
	<path class="st18" d="M346.5,192.9c-0.8-0.1-1.6-0.3-2.3-0.6C345.3,192.1,345.3,192.1,346.5,192.9z"/>
	<path class="st19" d="M363.7,186l-0.3-0.3c0.1-0.4,0.3-0.8,0.6-1l0.3,0.3C364.2,185.4,364,185.8,363.7,186z"/>
	<path class="st5" d="M376.1,171.2c-0.4,0.2-0.9,0.1-1-0.2s0.4-0.3,0.7-0.3L376.1,171.2z"/>
	<path class="st20" d="M423.6,219.1h-2.4C422,218.8,422.9,218.8,423.6,219.1z"/>
	<path class="st21" d="M326.5,184.6c-0.2,0.3-0.5,0.4-0.8,0.4c-0.1,0-0.1-0.2-0.1-0.3C325.8,184.4,326.2,184.4,326.5,184.6z"/>
	<path class="st22" d="M374.2,227.6l-0.4-0.3l1.4-0.7C375,227.3,374.7,227.5,374.2,227.6z"/>
	<path class="st14" d="M437.9,228.1c-0.6,0.4-1.3,0.4-1.9,0H437.9z"/>
	<path class="st23" d="M394.4,219.1h-1.7C393.2,218.8,393.8,218.8,394.4,219.1z"/>
	<path class="st24" d="M328,184.9c-0.3-0.1-0.9-0.1-0.7-0.4s0.7-0.1,1.1,0.1C328.4,184.8,328.2,184.9,328,184.9z"/>
	<path class="st25" d="M328,184.9l0.4-0.3l1,0.2l-0.7,0.3L328,184.9z"/>
	<path class="st4" d="M373.2,172.9c2.2,0.2,4.4,0.1,6.3,1.1c1.2,1.6,0.8,2.4-1.5,2.8c-1.6,0.2-3.3,0.3-4.9,0.2c-2.3,0-4.6,0-6.9,0
		c-1.1,0.1-2.2,0-3.3-0.3c-1-0.3-1.9-0.6-2-1.6c-0.1-1,1-1.3,2-1.5c1.8-0.4,3.7-0.5,5.5-0.5C370.2,173,371.7,173,373.2,172.9z"/>
	<path class="st5" d="M378.1,173.3c0.5-0.2,0.9-0.5,1.1-0.1c0.2,0.4-0.2,0.4-0.5,0.3L378.1,173.3z"/>
	<path class="st5" d="M375.3,171.8c-0.2,0.1-0.3,0.1-0.5,0.1c-0.2,0-0.5-0.1-0.3-0.3c0.2-0.1,0.4-0.2,0.5-0.1
		C375.2,171.5,375.4,171.6,375.3,171.8z"/>
	<path class="st5" d="M379.1,171.1c0.1-0.5,0.3-0.6,0.7-0.8C379.9,170.7,379.6,170.9,379.1,171.1z"/>
	<path class="st26" d="M369.7,222.8c-1,0-2.2,0.4-2-1.1s0.5-2,1.9-1.9s1.8,0.6,2,2C371.8,223.1,370.7,222.8,369.7,222.8z"/>
</g>
</svg>
