<svg xmlns="http://www.w3.org/2000/svg" viewBox="0 0 224.1 369.06"><defs><style>.cls-1{fill:#fdfdfd;}.cls-2{fill:#cbcbcb;}.cls-3{fill:#c5c5c5;}.cls-4{fill:#231f20;}.cls-5{fill:#c3c3c3;}.cls-6{fill:#b9b9b9;}.cls-7{fill:#c8c8c8;}.cls-8{fill:#fefefe;}.cls-9{fill:#fdfdfe;}.cls-10{fill:#fcfcfc;}.cls-11{fill:#fcfbfb;}.cls-12{fill:#fbfbfb;}.cls-13{fill:#f0eff0;}.cls-14{fill:#f5f4f4;}.cls-15{fill:#ecebec;}.cls-16{fill:#e6e4e5;}.cls-17{fill:#d6d3d4;}.cls-18{fill:#f2f0f1;}.cls-19{fill:#f7f6f6;}.cls-20{fill:#d6d4d4;}.cls-21{fill:#f9f7f7;}.cls-22{fill:#d4d2d3;}.cls-23{fill:#eaebea;}.cls-24{fill:#9f9b9d;}.cls-25{fill:#d5d1d2;}.cls-26{fill:#e5e2e3;}.cls-27{fill:#8c898a;}.cls-28{fill:#aca9aa;}.cls-29{fill:#252123;}</style></defs><title>Asset 2</title><g id="Layer_2" data-name="Layer 2"><g id="Layer_1-2" data-name="Layer 1"><path class="cls-1" d="M224.36,189.22q0,89.43,0,178.86c0,.92-.17,1.2-1.43,1.2q-110.56,0-221.14,0C.47,369.29.29,369,.29,368q0-183.25,0-366.53C.29.52.44.22,1.8.22q110.57.06,221.14,0c1.24,0,1.44.26,1.44,1.19q0,56.88,0,113.75c-.42.64-1.43.77-1.87,1.39a2.09,2.09,0,0,1-.24.28c-.26.24-.43.54-.8.7,0,.14-.4-.26-.24.11a1,1,0,0,1,.13.23c0,.4.19.78.24,1.18.08,5.66,0,11.31,0,17v49.63a2.36,2.36,0,0,0,.1.83,4.63,4.63,0,0,0,.42,1C222.53,188.4,223.69,188.6,224.36,189.22Z" transform="translate(-0.29 -0.22)"/><path class="cls-1" d="M224.36,115.68v73c-1.27.27-1.76-.52-2.39-1.12a12.5,12.5,0,0,1-.45-1.3c-.07-8,0-16,0-24,0-14.55,0-29.11,0-43.66a3.55,3.55,0,0,1,.67-1.94v0A2.48,2.48,0,0,1,224.36,115.68Z" transform="translate(-0.29 -0.22)"/><path class="cls-2" d="M222.15,187.69c.71.37,1.23,1,2.21,1v.51a3.25,3.25,0,0,1-2.53-1.53C221.93,187.56,222,187.57,222.15,187.69Z" transform="translate(-0.29 -0.22)"/><path class="cls-3" d="M224.36,115.68c-.91.12-1.46.73-2.24,1,.16-1.06,1.41-1.1,2.24-1.54Z" transform="translate(-0.29 -0.22)"/><path class="cls-4" d="M202.64,169.25q0,46,0,92c0,1.24-.37,1.52-1.9,1.52q-89.29,0-178.6,0c-1.41,0-1.82-.24-1.82-1.43q.06-92.11,0-184.22c0-1.25.31-1.59,1.95-1.59q89.22.06,178.44,0c1.48,0,1.93.22,1.93,1.5Q202.61,123.16,202.64,169.25Z" transform="translate(-0.29 -0.22)"/><path class="cls-5" d="M222.13,116.69a13.86,13.86,0,0,0-.34,4.3q0,32.83,0,65.68a.21.21,0,0,1-.34,0,.49.49,0,0,1-.24-.55,2.61,2.61,0,0,0,.13-1.38q0-32.46,0-64.91c0-.45.2-.94-.19-1.36s0-.5.08-.75a.42.42,0,0,1,.22-.29A1,1,0,0,1,222.13,116.69Z" transform="translate(-0.29 -0.22)"/><path class="cls-6" d="M221.13,118.49c.61.4.34,1,.34,1.43q0,32.45,0,64.89c0,.45.21.94-.27,1.33l0-25.14Q221.16,139.75,221.13,118.49Z" transform="translate(-0.29 -0.22)"/><path class="cls-7" d="M221.44,186.69l.34,0a1.46,1.46,0,0,1,.37,1h-.32A1.58,1.58,0,0,1,221.44,186.69Z" transform="translate(-0.29 -0.22)"/><path class="cls-1" d="M221.43,117.45l-.22.29c-.32-.13-.67-.26-.43-.63a1.07,1.07,0,0,1,.18-.19Z" transform="translate(-0.29 -0.22)"/><path class="cls-8" d="M111.36,228.35q-31.06,0-62.12,0c-1.4,0-1.79-.25-1.75-1.39.11-3,.07-6,0-9.06,0-.84.17-1.18,1.36-1.18q13,.06,26,0a2.72,2.72,0,0,1,1.92.67,19.39,19.39,0,0,0,24.13-.11,1.91,1.91,0,0,1,1.49-.55,12.78,12.78,0,0,0,1.75,0c1.56-.16,2.32,0,2.33,1.61,0,2.18,1.67,4,3.52,5.55a1.64,1.64,0,0,0,2.42-.32,13.31,13.31,0,0,0,3.76-6c.15-.67.4-1,1.29-.88a4.31,4.31,0,0,0,1,0,10.14,10.14,0,0,1,7.1,1.88c4.34,3,9.53,3.45,14.9,1.65a20.68,20.68,0,0,0,5.53-2.73,4.15,4.15,0,0,1,2.69-.81c8.34,0,16.68.05,25,0,1.46,0,1.75.33,1.71,1.42-.1,2.93-.12,5.87,0,8.8.06,1.24-.49,1.42-1.86,1.42Q142.43,228.32,111.36,228.35Z" transform="translate(-0.29 -0.22)"/><path class="cls-8" d="M103.87,209.38c.62-2.66.42-3.08-2.71-4.26a5.65,5.65,0,0,1-3.59-3.82c-.49-1.53.17-2.61,1.91-3.43a17.41,17.41,0,0,1,3.61-1.3c1-.22,1.42-.57.88-1.44-.68-1.09-1.21-2.25-1.86-3.36-1-1.64-2.68-2.45-4.87-2.7q-4.18-.48-5.08,2.84a6.11,6.11,0,0,0,.61,5.33,3,3,0,0,1,.26.46c.33.79-.18,1.36-1,1.68s-1.22-.35-1.49-.81a15.93,15.93,0,0,1-1.85-6.92c-.28-3.18-.53-6.38,1-9.45a7.79,7.79,0,0,1,1.66-2.3,4.26,4.26,0,0,1,6.23-.08c2.43,2.23,3.54,5,4.69,7.72,1.22,2.9,2,5.88,3,8.89,1.45-.61,2-1.49,1.83-2.73a9.32,9.32,0,0,1,0-1.4.35.35,0,0,1,.43,0c.29,1.21.67,2.4.85,3.62.14.92.61.83,1.31.43a1.86,1.86,0,0,0,1-1.77,51.26,51.26,0,0,0-3.83-21.45,34.92,34.92,0,0,1-2.7-9.15,6.45,6.45,0,0,1,.37-3.52c.36-.83.55-1.77,2.18-1.38.54.12.89-.32,1.12-.75a5.74,5.74,0,0,0,.35-2.65,8.94,8.94,0,0,1,.51-3.64,2.2,2.2,0,0,1,2-1.46,2.51,2.51,0,0,1,2.3,1.14c1.32,1.7.92,3.51.46,5.31a6.68,6.68,0,0,1-.34,1,.86.86,0,0,0,.31,1.16,1.21,1.21,0,0,0,1.45-.07c1.07-.71,1.41-.3,1.84.54,1.57,3.08.82,6.08-.34,9.07-2.13,5.5-3.72,11-3.49,16.87a27.77,27.77,0,0,1-.54,4.95,15.87,15.87,0,0,0,.28,5.58c.18.2.09.53.4.65,1.23.48.9.93,0,1.4-2.31.23-4.64.15-7,.38a17.49,17.49,0,0,0-2.8.4c-.71.19-1.48.43-1.5,1.14s.78,1,1.54,1.27a8,8,0,0,0,2.18.3c3.55,0,7.09,0,10.64,0a7.48,7.48,0,0,0,1.26-.1c2.1-.3,2.45-.73,2-2.41a1.28,1.28,0,0,1,1.5-1.21c1.68.67,3.21,1.31,3.56,3.1.41,2-.32,3.38-2.51,4.48-2.78,1.39-2.74,1.49-1.7,4a14.79,14.79,0,0,0,4.72,6.1c3.86,3,10.58,1.18,12.36-1.52a10.56,10.56,0,0,1,2.16-2.94,2.73,2.73,0,0,1,.12,2.39c-.22.61-.46,1.22-.69,1.83s-.54,1.14-.05,1.41a2.08,2.08,0,0,0,2-.36,11.09,11.09,0,0,0,4.88-7.36,1.35,1.35,0,0,0-.9-1.51c-.82-.41-1.14.19-1.6.47-2.39,1.44-4.21,1.42-5.53-.06a2.24,2.24,0,0,1-.63-1.8c.2-1.92,3.09-3.91,5.58-3.84,2,.06,4.21,2,4.3,3.83a6.34,6.34,0,0,0,.53,2.38c.4.86,1.11,1.24,2.18.55l1.48-1a6.38,6.38,0,0,1,6.33,0,2.22,2.22,0,0,1,1.27,2.19c-.27.12-.4,0-.54-.14-2.49-1.85-3.15-1.86-5.8-.17a13.81,13.81,0,0,0-3.81,3.55c-2.92,4-7.45,6.31-13.11,6.8a14.42,14.42,0,0,1-11.17-3.77,49.31,49.31,0,0,1-6.06-6.85,13.46,13.46,0,0,0-1.13-1.39c-.68-.66-1.24-1.61-2.64-1.21a2.67,2.67,0,0,0-1.71,2.9,19.5,19.5,0,0,0,1.63,4.25c1.61,3.45-.44,6.08-2.8,8.68-.46.51-.87.36-1.24-.06-1.78-2-3.44-4-2.27-6.79a43.34,43.34,0,0,0,1.76-6.07c.18-.69.68-1.5-.63-2s-2.63-.83-3.8.17a11.42,11.42,0,0,0-1.22,1.48C103.89,209.66,103.7,209.65,103.87,209.38Z" transform="translate(-0.29 -0.22)"/><path class="cls-8" d="M96.53,85.31a26.37,26.37,0,0,1-2.17,1.6,4.09,4.09,0,0,0-2.15,3.77q-.22,12.9-.52,25.79c-.14,6.59-.24,13.19-.51,19.78-.09,2.1.38,3.86,2.59,5.15.55.32,1,.72,1.82,1.26H80.7l-.17-.28c.86-.64,1.69-1.31,2.59-1.91a3.37,3.37,0,0,0,1.67-2.9c.15-7.27.3-14.55.5-21.82,0-.82-.39-.9-1.2-.9-3,0-6,0-8.92-.14-1,0-1.37.19-1.37,1,0,3.24-.09,6.47-.17,9.7-.09,3.62-.11,7.24-.34,10.85a4.74,4.74,0,0,0,2.53,4.79c.58.35,1.15.72,1.72,1.07l-.29.23H62.31c1.19-.89,2-1.55,2.89-2.12a3.48,3.48,0,0,0,1.73-3q.48-23.67,1-47.35a3.38,3.38,0,0,0-1.63-3.16c-.85-.57-1.64-1.19-2.76-2H78.7a7.61,7.61,0,0,1-2.45,2.08A3.78,3.78,0,0,0,74.35,90c-.14,6.85-.27,13.7-.44,20.55,0,.78.23,1,1.22,1,3,0,6.06,0,9.08.11,1,0,1.21-.27,1.22-1q.13-10.28.36-20.55a3.54,3.54,0,0,0-1.74-3.26c-.81-.54-1.56-1.14-2.61-1.91h14.9Z" transform="translate(-0.29 -0.22)"/><path class="cls-8" d="M36.81,141.78a16.37,16.37,0,0,1,1.71-1.26,4.56,4.56,0,0,0,2.5-4.41c.1-8,.29-16.07.47-24.11.18-7.87.36-15.74.61-23.6,0-1-.25-1.38-1.62-1.34-4,.11-3.86-.7-5.21,3.17-1.42,4.08-2.9,8.15-4.35,12.23-.08.24-.11.49-.18.53,0-4.87,0-9.84,0-14.82,0-1.3-.62-3,.45-3.77s3-.15,4.63-.13l22.77.27c.74,0,1.3,0,1.27.85-.19,5.78-.32,11.56-.47,17.35a.74.74,0,0,1-.33.61l-3.27-10.5c-.42-1.36-.85-2.71-1.24-4.07-.31-1.06-1-1.56-2.46-1.57-3.65,0-3.64-.09-3.7,2.82-.31,15.18-.57,30.36-1,45.54-.07,2.38.5,4.25,3,5.65a6.09,6.09,0,0,1,.8.62,1.49,1.49,0,0,1,.19.27H37Z" transform="translate(-0.29 -0.22)"/><path class="cls-8" d="M142.52,143.32H130.18a4.84,4.84,0,0,1,.69-.65c2.57-1.53,2.95-3.62,3-6,.08-10.3.35-20.6.65-30.89a3.7,3.7,0,0,0-2-3.86,11.05,11.05,0,0,1-1.3-1h8.64a.39.39,0,0,1,.44.43,5.28,5.28,0,0,0,0,.89c.09.47-.39,1.11.35,1.37s1.14-.31,1.58-.65a8.9,8.9,0,0,1,6.48-1.94c3.46.28,5.87,2.06,6.51,4.8a14.72,14.72,0,0,1,.34,3.68c-.23,9.62-.4,19.24-.7,28.85a4.2,4.2,0,0,0,1.85,4,18.08,18.08,0,0,1,1.37,1.26H145.5c1.08-1,1.86-1.67,2.7-2.34a2.24,2.24,0,0,0,.94-1.82q.29-15.37.63-30.76a7.77,7.77,0,0,0-.36-2.91c-.93-2.53-4.07-3.22-6.46-1.39a6.53,6.53,0,0,0-2.71,4.89c-.52,7.87-.45,15.74-.64,23.61,0,1.83.07,3.67-.14,5.49a3.75,3.75,0,0,0,1.72,3.75A13.47,13.47,0,0,1,142.52,143.32Z" transform="translate(-0.29 -0.22)"/><path class="cls-8" d="M113.09,141.89c2.55-1.4,3-3.4,3-5.76q.33-22.22,1-44.42a5.2,5.2,0,0,0-2.7-5.11,3.09,3.09,0,0,1-1.27-1.13h15c-1.07.8-1.73,1.39-2.5,1.87a3.88,3.88,0,0,0-2.06,3.52q-.26,14.74-.64,29.48c-.12,5.49-.21,11-.48,16.46a5,5,0,0,0,2.61,5c.57.35,1.07.76,1.63,1.16H113.14A.9.9,0,0,1,113.09,141.89Z" transform="translate(-0.29 -0.22)"/><path class="cls-8" d="M181.25,138.75c-1.23,2.49-2.75,4.75-6.53,5.08a8.36,8.36,0,0,1-8.18-3.9c-2-3.17-2.65-6.63-3-10.1a57.16,57.16,0,0,1,.54-16.92,18.24,18.24,0,0,1,3.5-8.13,8.57,8.57,0,0,1,5.91-3.35c4.19-.49,8,2.16,8.38,5.78-.67,0-.78-.51-1.08-.8a11.28,11.28,0,0,0-2.51-1.94c-2.9-1.54-5.68-.81-6.85,1.8a17,17,0,0,0-1.22,5.89,138.41,138.41,0,0,0,0,21.93,13.62,13.62,0,0,0,1.29,5.1c1.19,2.34,3.31,2.94,6.16,1.81A23.47,23.47,0,0,0,181.25,138.75Z" transform="translate(-0.29 -0.22)"/><path class="cls-8" d="M113.13,197.88c.11-.33.8-.72-.25-.91-.47-.09-.38-.55-.37-.89.31.37.53.87,1.15.19a4.16,4.16,0,0,0,1.09-2.22c.54-3.26.34-6.54.57-9.8a33.66,33.66,0,0,1,8.35-19.77,18.11,18.11,0,0,1,5.64-4.61c2.29-1.15,3.15-1.07,5.16.34a3,3,0,0,0,4,0,17.07,17.07,0,0,0,3-3.09,14.61,14.61,0,0,1,6.54-4.11c1.52-.5,3-1.06,4.48-1.64a4.23,4.23,0,0,1,4,.44,2.49,2.49,0,0,1,1.06,3c-.19.74-.62,1.2-1.8.82-5.35-1.72-8.15-1.16-12,2.31l-.11.09c-2.56,2.34-2.55,2.33-.47,5,.27.35.72.64.69,1.11a1,1,0,0,1-.9.07c-4.32-1.3-8.14-.15-11.81,1.56a24.69,24.69,0,0,0-12.94,13.54,38.26,38.26,0,0,0-2.63,16.08c-.31.34,0,.42.32.53,1.55.76,1.86-.37,2.2-1a8.83,8.83,0,0,0,.71-3.62,17.67,17.67,0,0,1,2.2-8.11,4.19,4.19,0,0,1,1.67,1.64,1,1,0,0,1-.22,1.39c-1.6,1.35-1.47,2.23.44,3.27a1.07,1.07,0,0,1,.42.36L121.72,191a1.77,1.77,0,0,1-.61.09c-.32,0-.76-.35-.87.18s.56.36.86.53a9.56,9.56,0,0,0-1,3.62,3.59,3.59,0,0,0,.72,2.5,2.86,2.86,0,0,0-1.32,1.11A37.41,37.41,0,0,1,113.13,197.88Z" transform="translate(-0.29 -0.22)"/><path class="cls-8" d="M123.41,189.76c-2.16-.56-2.82-1.45-2.3-3.12.07-.22.16-.44.42-.49,2-.35,1-1.16.45-1.89-.27-.39-.9-.62-.88-1.16a9.35,9.35,0,0,1,3.32-4.55,6.27,6.27,0,0,1,8.57.53c3.11,3.4,4,7.23,2.34,11.23-1.09,2.65-2.17,5.3-3.06,8-.21.63-.4,1.59-1.32,1.55s-1.28-1-1.45-1.76a5.49,5.49,0,0,1,.42-3C131,191.88,127,188.67,123.41,189.76Z" transform="translate(-0.29 -0.22)"/><path class="cls-1" d="M105.85,187.43a84.82,84.82,0,0,0-4.8-11.17c-2-4-5.67-6.81-10-9.16a7.32,7.32,0,0,0-3.14-.83,3.38,3.38,0,0,1-1.53-.31,8.48,8.48,0,0,0-5.45-.91c-1.18.14-1.43-.24-1.05-1.09a8.5,8.5,0,0,1,2-2.75c.93-.86.71-1.59-.08-2.37-3.28-3.23-11-3.52-14.5-.54a5,5,0,0,1-.66.56c-.43.27-.69.93-1.36.71a1.63,1.63,0,0,1-1.14-1.43c-.12-1.33.69-2.28,2-3a6.24,6.24,0,0,1,2.29-.85A24.92,24.92,0,0,1,82,155.87a5.48,5.48,0,0,1,3.34,3.4,10.91,10.91,0,0,0,.72,1.95c.74,1.54,1.55,1.82,3.34,1.12a5.08,5.08,0,0,1,5.2.91c2.94,2.18,4.71,5,6.44,7.82,2.6,4.24,3.64,8.84,4.72,13.42.14.62.23,1.26.35,1.88C106.23,186.76,106.62,187.2,105.85,187.43Z" transform="translate(-0.29 -0.22)"/><path class="cls-1" d="M70.84,210.12a1.65,1.65,0,0,1,.31,0c2.64.79,2.59.78,3.18-1.53a10.25,10.25,0,0,1,3-5.54,4,4,0,0,1,4.12-.92,4.27,4.27,0,0,0,1.69.31c1.86-.29,2.08.7,2.33,1.73a6.31,6.31,0,0,1,0,3.17,2.68,2.68,0,0,1-4.32,1.17c-.62-.55-1.38-1.34-2.57-.79a2.2,2.2,0,0,0-1.35,2.41c.26,3.92,4.25,7.83,8.44,8.24a1.65,1.65,0,0,0,.31,0c.91,0,2.12.21,2.51-.42s-.77-1.06-1.32-1.52c-.95-.8-2.14-1.45-2.29-2.72.77-.06,1,.44,1.32.7a17.68,17.68,0,0,0,3.12,2,8,8,0,0,0,8.5-.61,24.11,24.11,0,0,0,5.48-5.42c.31,0,.48,0,.35.3-2.84,9.33-12.78,10.66-19.94,9.41a10.32,10.32,0,0,1-5-2.55c-1.44-1.24-2.83-2.52-4.21-3.81a26.33,26.33,0,0,0-4.35-3.33C70.09,210,70.46,210,70.84,210.12Z" transform="translate(-0.29 -0.22)"/><path class="cls-9" d="M84.84,253c2.15-.34,1.94-1.61,1.91-2.88-.06-2.29,0-4.59,0-6.89,0-1.83,0-1.83-2-2.69h8.37c-1.68.45-2.54,1-2.29,2.24a18.36,18.36,0,0,1,.06,3.06c0,.27.22.35.52.35h.48c1.4-.1,3.55.52,4-.26.7-1.14.28-2.73.23-4.13,0-.87-1.32-.67-2-1.27h7.81c-2.48.49-1.83,2.08-1.84,3.42,0,2.08,0,4.17,0,6.25,0,1.27-.08,2.43,2,2.77H93.91c1.51-.48,2.54-1,2.27-2.31a18.7,18.7,0,0,1-.08-3.18c0-.12-.24-.24-.4-.33a.49.49,0,0,0-.3,0c-1.51.1-3.9-.54-4.33.26-.71,1.32-.3,3.07-.14,4.63,0,.58,1.28.43,1.83,1Z" transform="translate(-0.29 -0.22)"/><path class="cls-1" d="M37.28,253c2-.41,1.95-1.57,1.92-2.83-.07-2.59,0-5.18,0-7.77,0-.4.41-1.07-.52-1.12s-1.72-.3-2.31.46c-.7.91-1.44,1.79-2.17,2.67-.16.21-.33.48-.72.34s-.23-.36-.23-.56c0-1,0-2,0-3.06,0-.6.35-.71,1-.7q7,0,14,0c.69,0,.93.18.91.74-.05,1,0,2,0,3.06,0,.19.12.45-.21.55s-.57-.13-.74-.34a27.5,27.5,0,0,1-1.89-2.36c-.59-.94-1.59-.94-2.57-.78s-.49.92-.5,1.39c-.06,2.42,0,4.85,0,7.27,0,1.22-.49,2.66,1.82,3.05Z" transform="translate(-0.29 -0.22)"/><path class="cls-10" d="M114.09,252.31a10.32,10.32,0,0,1-8.07,0,4.62,4.62,0,0,1-2.42-5.18c.34-1.66,1.81-2.88,4-3.25a12.86,12.86,0,0,1,4.42,0c2.24.38,3.31,1.57,3.26,3.39,0,.68-.32.87-1.13.86-1.75,0-3.5,0-5.25,0-.82,0-1.19.1-1.21.88-.07,3.11,1.58,3.95,6.06,3C114.07,251.9,114.15,252.05,114.09,252.31Z" transform="translate(-0.29 -0.22)"/><path class="cls-1" d="M143.69,240.51h7.7c-2.51.44-1.82,2-1.84,3.33,0,2.08,0,4.16,0,6.24,0,1.23-.36,2.57,1.89,2.91H143.7c2.34-.38,1.9-1.82,1.89-3.11,0-2.29,0-4.58,0-6.87C145.58,241.36,145.58,241.36,143.69,240.51Z" transform="translate(-0.29 -0.22)"/><path class="cls-11" d="M61.51,245.36a10.58,10.58,0,0,0-3.12-.87c-1.84-.12-2.84.58-2.87,2s0,2.81,0,4.21c0,1-.07,1.92,1.56,2.21h-7c2-.41,1.89-1.43,1.84-2.51-.06-1.4,0-2.8,0-4.21,0-1,.38-2.07-1.44-2.46,1.78.26,3.6-.7,5.21.43.17.12.77-.15,1.16-.25C59,243.4,60.46,243.77,61.51,245.36Z" transform="translate(-0.29 -0.22)"/><path class="cls-1" d="M134.24,243.85c.58.43,1.76.3,1.89,1.32-1-.24-1.92-.53-2.86-.66-1.64-.22-2.75.45-2.81,1.73-.08,1.82,0,3.65,0,5.48,0,.91,1.19.68,1.59,1.29h-6.55c1.53-.44,1.37-1.43,1.35-2.39,0-1.53,0-3.06,0-4.59,0-.95.09-1.84-1.43-2.23,1.82.25,3.66-.75,5.35.44.54.37,1.11-.49,1.8-.38A3,3,0,0,1,134.24,243.85Z" transform="translate(-0.29 -0.22)"/><path class="cls-12" d="M71.65,252.66c-1.52,0-3,.52-4.51.42-3.06-.19-3.64-.63-3.65-3.08,0-1.36-.05-2.72,0-4.08.05-.94.05-1.78-1.39-2.22,1.43,0,2.87,0,4.3,0,.94,0,.77.54.77,1,0,1.86,0,3.73,0,5.6s.94,2.5,3.38,1.81L71,252C71.51,252,72.26,252,71.65,252.66Z" transform="translate(-0.29 -0.22)"/><path class="cls-1" d="M160.62,244.38c-1.63.32-2.35,1.09-2.21,2.49.13,1.22,0,2.46,0,3.69,0,1-.42,2.14,1.44,2.46h-6.53c1.55-.45,1.54-1.41,1.48-2.47-.08-1.57-.06-3.14,0-4.71,0-.92,0-1.71-1.47-1.93,2.47-.54,4.87.14,7.26,0A.29.29,0,0,1,160.62,244.38Z" transform="translate(-0.29 -0.22)"/><path class="cls-10" d="M117.14,243.94c.36-.2.4-.23.44-.23,1.52,0,3.49-.4,4.46.2s.28,2.3.35,3.51a28.11,28.11,0,0,1,0,3.18c0,1-.14,2,1.39,2.4h-6.4c2-.53,1.39-1.85,1.41-3,0-1.36-.05-2.72,0-4.08C118.86,245,118.82,244.16,117.14,243.94Z" transform="translate(-0.29 -0.22)"/><path class="cls-1" d="M71.65,252.66c.27-.51-.51-.41-.63-.7a2.1,2.1,0,0,0,.54-1.68q0-2.24,0-4.47c0-.87.16-1.78-1.71-1.78l.32-.33c1.43,0,2.87,0,4.3,0,.84,0,.75.44.75.86,0,2.09.06,4.17,0,6.25a1.91,1.91,0,0,0,1.35,2.26H72.08C71.76,253.06,71.62,252.91,71.65,252.66Z" transform="translate(-0.29 -0.22)"/><path class="cls-1" d="M160.62,244.38v-.5l.52,0a6.68,6.68,0,0,1,2.4,0,3.12,3.12,0,0,0,1,.23c1.27,0,1.92.56,1.93,1.59,0,1.65.05,3.3,0,5,0,1,0,1.94,1.46,2.37h-6.44c1.5-.43,1.42-1.39,1.38-2.38,0-1.44,0-2.88,0-4.32S162.69,244.58,160.62,244.38Z" transform="translate(-0.29 -0.22)"/><path class="cls-1" d="M177.83,252.32a.38.38,0,0,1,.28,0c.39-.08.84-.32,1,.25-.31.08-.49.4-.9.3a17,17,0,0,1-4.22,0c-2.92-.6-4.24-2.45-3.85-5.44.28-2.12,2.13-3.42,5.06-3.54.35-.1.75-.2,1,0s-.05.37-.28.49a2.11,2.11,0,0,0-1.66,2,14.14,14.14,0,0,0,.06,3.79,2.57,2.57,0,0,0,1.6,2.19A3.39,3.39,0,0,0,177.83,252.32Z" transform="translate(-0.29 -0.22)"/><path class="cls-1" d="M186.42,141a4.56,4.56,0,0,1,.66-2.6,3,3,0,0,1,4.88.22,4.08,4.08,0,0,1,.09,3.84,2.7,2.7,0,0,1-2.72,1.63,2.54,2.54,0,0,1-2.65-1.84A9,9,0,0,1,186.42,141Z" transform="translate(-0.29 -0.22)"/><path class="cls-13" d="M184.38,253.1c-.76-.1-1.81,0-1.88-.82s1-.89,1.74-.9,1.79,0,1.87.79S185.11,253,184.38,253.1Z" transform="translate(-0.29 -0.22)"/><path class="cls-14" d="M120.6,242.24c-.8-.12-1.86-.11-1.91-.87s1-.88,1.75-.9,1.81.06,1.88.81S121.32,242.09,120.6,242.24Z" transform="translate(-0.29 -0.22)"/><path class="cls-15" d="M175.91,244.38c.36-.7-.43-.41-.73-.54,2.15-.36,4-.05,5.38,1.52C179,245,177.59,244.28,175.91,244.38Z" transform="translate(-0.29 -0.22)"/><path class="cls-8" d="M121.1,191.78c-.41.06-.89.61-1.19.14a2,2,0,0,1,0-1.38c0-.28.42-.23.62-.08a2.47,2.47,0,0,0,1.19.52Z" transform="translate(-0.29 -0.22)"/><path class="cls-16" d="M105.85,187.43c.41-.3.16-.71.3-1.06a17.07,17.07,0,0,1,.87,3.89c-.17.16,0,.42-.29.55Z" transform="translate(-0.29 -0.22)"/><path class="cls-17" d="M179.09,252.53c-.24-.32-.66-.15-1-.25a7.13,7.13,0,0,1,2.35-.69A1.42,1.42,0,0,1,179.09,252.53Z" transform="translate(-0.29 -0.22)"/><path class="cls-18" d="M113.09,141.89c0,.37.36.72,0,1.1h-1.27C112,142.4,112.6,142.18,113.09,141.89Z" transform="translate(-0.29 -0.22)"/><path class="cls-19" d="M106.73,190.81l.29-.55a5.65,5.65,0,0,1,.42,2l-.43,0A2.88,2.88,0,0,1,106.73,190.81Z" transform="translate(-0.29 -0.22)"/><path class="cls-17" d="M174,252.82h4.22A7.39,7.39,0,0,1,174,252.82Z" transform="translate(-0.29 -0.22)"/><path class="cls-20" d="M70.84,210.12c-.28.07-.6.06-.75.32l-1.53-.6c0-.49.41-.25.69-.25A3.84,3.84,0,0,1,70.84,210.12Z" transform="translate(-0.29 -0.22)"/><path class="cls-21" d="M86.39,217.63a5.83,5.83,0,0,1-2.28-.64C85.17,216.77,85.17,216.77,86.39,217.63Z" transform="translate(-0.29 -0.22)"/><path class="cls-22" d="M103.61,210.72l-.35-.3a1.58,1.58,0,0,1,.61-1l.28.25A1.53,1.53,0,0,1,103.61,210.72Z" transform="translate(-0.29 -0.22)"/><path class="cls-8" d="M116,195.88c-.42.18-.9.06-1-.2s.38-.3.69-.33Z" transform="translate(-0.29 -0.22)"/><path class="cls-23" d="M163.54,243.85l-2.4,0A4.17,4.17,0,0,1,163.54,243.85Z" transform="translate(-0.29 -0.22)"/><path class="cls-24" d="M66.39,209.24a.83.83,0,0,1-.85.37c-.05,0-.12-.24-.07-.28A.7.7,0,0,1,66.39,209.24Z" transform="translate(-0.29 -0.22)"/><path class="cls-25" d="M114.09,252.31l-.39-.31,1.38-.69C114.88,252,114.61,252.21,114.09,252.31Z" transform="translate(-0.29 -0.22)"/><path class="cls-17" d="M177.83,252.32a1.76,1.76,0,0,1-1.92,0Z" transform="translate(-0.29 -0.22)"/><path class="cls-26" d="M134.24,243.85h-1.7A2,2,0,0,1,134.24,243.85Z" transform="translate(-0.29 -0.22)"/><path class="cls-27" d="M67.9,209.61c-.28-.09-.89-.09-.7-.4s.73-.08,1.07.14C68.25,209.53,68.06,209.55,67.9,209.61Z" transform="translate(-0.29 -0.22)"/><path class="cls-28" d="M67.9,209.61l.37-.26,1,.24-.69.25Z" transform="translate(-0.29 -0.22)"/><path class="cls-4" d="M113.13,197.88c2.17.18,4.4.15,6.34,1.13,1.23,1.58.81,2.39-1.45,2.79a27.65,27.65,0,0,1-4.9.21c-2.39,0-4.77,0-7.16,0a11.4,11.4,0,0,1-3-.32c-1-.26-1.93-.62-2-1.61s1-1.28,2-1.52a28.81,28.81,0,0,1,5.5-.54C110.06,197.93,111.6,197.92,113.13,197.88Z" transform="translate(-0.29 -0.22)"/><path class="cls-8" d="M118,198c.51-.19.85-.53,1.08-.12s-.19.35-.5.28Z" transform="translate(-0.29 -0.22)"/><path class="cls-8" d="M115.19,196.51a2.4,2.4,0,0,1-.52.1c-.22,0-.45-.08-.25-.28a.85.85,0,0,1,.55-.15C115.13,196.17,115.27,196.27,115.19,196.51Z" transform="translate(-0.29 -0.22)"/><path class="cls-8" d="M118.94,195.77c.07-.48.33-.65.74-.8C119.76,195.4,119.44,195.56,118.94,195.77Z" transform="translate(-0.29 -0.22)"/><path class="cls-29" d="M109.61,247.48c-1,0-2.16.36-2-1.13s.52-2,1.93-1.94,1.85.59,2,2S110.56,247.44,109.61,247.48Z" transform="translate(-0.29 -0.22)"/></g></g></svg>